<svg xmlns="http://www.w3.org/2000/svg" viewBox="0 0 760 390.56" width="760" height="390.56" role="img" aria-labelledby="plan-title plan-desc"><title id="plan-title">Draufsicht</title><desc id="plan-desc">Draufsicht des Hochbeets, außen 2400 × 1000 mm, innen 2344 × 944 mm, 6 Pfosten 70 × 70 mm, 1 Zuganker-Achse(n).</desc><defs><pattern id="plan-end-grain" width="6" height="6" patternUnits="userSpaceOnUse" patternTransform="rotate(45)"><rect width="6" height="6" fill="#dcb98a"/><line x1="0" y1="0" x2="0" y2="6" stroke="#8b5e34" stroke-width="1"/></pattern></defs><rect x="0" y="0" width="760" height="390.56" fill="#ffffff"/><rect x="58.06" y="58.06" width="633.33" height="7.39" fill="#ecd3a8" stroke="#1f2937" stroke-width="1.4"/><rect x="58.06" y="314.56" width="633.33" height="7.39" fill="#ecd3a8" stroke="#1f2937" stroke-width="1.4"/><rect x="58.06" y="65.44" width="7.39" height="249.11" fill="#ecd3a8" stroke="#1f2937" stroke-width="1.4"/><rect x="684" y="65.44" width="7.39" height="249.11" fill="#ecd3a8" stroke="#1f2937" stroke-width="1.4"/><rect x="65.44" y="65.44" width="18.47" height="18.47" fill="url(#plan-end-grain)" stroke="#1f2937" stroke-width="1.4"/><rect x="65.44" y="296.08" width="18.47" height="18.47" fill="url(#plan-end-grain)" stroke="#1f2937" stroke-width="1.4"/><rect x="365.49" y="65.44" width="18.47" height="18.47" fill="url(#plan-end-grain)" stroke="#1f2937" stroke-width="1.4"/><rect x="365.49" y="296.08" width="18.47" height="18.47" fill="url(#plan-end-grain)" stroke="#1f2937" stroke-width="1.4"/><rect x="665.53" y="65.44" width="18.47" height="18.47" fill="url(#plan-end-grain)" stroke="#1f2937" stroke-width="1.4"/><rect x="665.53" y="296.08" width="18.47" height="18.47" fill="url(#plan-end-grain)" stroke="#1f2937" stroke-width="1.4"/><line x1="374.72" y1="83.92" x2="374.72" y2="296.08" stroke="#b45309" stroke-width="0.9" stroke-dasharray="12 3 2 3"/><line x1="58.06" y1="321.94" x2="58.06" y2="362.89" stroke="#4b5563" stroke-width="0.7"/><line x1="691.39" y1="321.94" x2="691.39" y2="362.89" stroke="#4b5563" stroke-width="0.7"/><line x1="58.06" y1="358.89" x2="691.39" y2="358.89" stroke="#4b5563" stroke-width="0.7"/><line x1="54.06" y1="362.89" x2="62.06" y2="354.89" stroke="#1f2937" stroke-width="1.4"/><line x1="687.39" y1="362.89" x2="695.39" y2="354.89" stroke="#1f2937" stroke-width="1.4"/><text x="374.73" y="354.89" font-size="11" font-family="Inter, Helvetica, Arial, sans-serif" fill="#111827" text-anchor="middle">2400</text><line x1="691.39" y1="58.06" x2="732.33" y2="58.06" stroke="#4b5563" stroke-width="0.7"/><line x1="691.39" y1="321.94" x2="732.33" y2="321.94" stroke="#4b5563" stroke-width="0.7"/><line x1="728.33" y1="58.06" x2="728.33" y2="321.94" stroke="#4b5563" stroke-width="0.7"/><line x1="724.33" y1="62.06" x2="732.33" y2="54.06" stroke="#1f2937" stroke-width="1.4"/><line x1="724.33" y1="325.94" x2="732.33" y2="317.94" stroke="#1f2937" stroke-width="1.4"/><text x="724.33" y="190" font-size="11" font-family="Inter, Helvetica, Arial, sans-serif" fill="#111827" text-anchor="middle" transform="rotate(-90 724.33 190)">1000</text><line x1="65.44" y1="58.06" x2="65.44" y2="25.11" stroke="#4b5563" stroke-width="0.7"/><line x1="684" y1="58.06" x2="684" y2="25.11" stroke="#4b5563" stroke-width="0.7"/><line x1="65.44" y1="21.11" x2="684" y2="21.11" stroke="#4b5563" stroke-width="0.7"/><line x1="61.44" y1="25.11" x2="69.44" y2="17.11" stroke="#1f2937" stroke-width="1.4"/><line x1="680" y1="25.11" x2="688" y2="17.11" stroke="#1f2937" stroke-width="1.4"/><text x="374.72" y="17.11" font-size="11" font-family="Inter, Helvetica, Arial, sans-serif" fill="#111827" text-anchor="middle">innen 2344</text><text x="374.72" y="190" font-size="12" font-family="Inter, Helvetica, Arial, sans-serif" fill="#111827" text-anchor="middle">Pflanzfläche</text><text x="374.72" y="213.75" font-size="10" font-family="Inter, Helvetica, Arial, sans-serif" fill="#111827" text-anchor="middle">2344 × 944</text><text x="382.64" y="158.33" font-size="10" font-family="Inter, Helvetica, Arial, sans-serif" fill="#111827" text-anchor="start">Zuganker M10</text><text x="752" y="382.56" font-size="10" font-family="Inter, Helvetica, Arial, sans-serif" fill="#6b7280" text-anchor="end">Draufsicht · Maße in mm · Darstellung nicht maßstäblich</text></svg>
